<mxfile host="app.diagrams.net" modified="2020-07-28T01:47:54.994Z" agent="5.0 (Windows NT 10.0; Win64; x64) AppleWebKit/537.36 (KHTML, like Gecko) Chrome/83.0.4103.61 Safari/537.36" etag="QGER9RdcXz5t_P5T5P0h" version="13.5.3" type="github" pages="5">
  <diagram id="YtGcmlx5MdhKh6ri9F74" name="REITs交易组件图">
    <mxGraphModel dx="1038" dy="564" grid="1" gridSize="10" guides="1" tooltips="1" connect="1" arrows="1" fold="1" page="1" pageScale="1" pageWidth="827" pageHeight="1169" background="#F1FAEE" math="0" shadow="0">
      <root>
        <mxCell id="0" />
        <mxCell id="1" parent="0" />
        <mxCell id="OGBte0PvkTn54QuSE-R2-2" value="&lt;font style=&quot;font-size: 14px&quot;&gt;&lt;b&gt;用户层&lt;br&gt;（Web,H5,APP等）&lt;/b&gt;&lt;/font&gt;" style="rounded=1;whiteSpace=wrap;html=1;sketch=0;strokeColor=#36393d;fillColor=#cce5ff;" parent="1" vertex="1">
          <mxGeometry x="206" y="33" width="400" height="50" as="geometry" />
        </mxCell>
        <mxCell id="OGBte0PvkTn54QuSE-R2-4" value="&lt;b&gt;&lt;font style=&quot;font-size: 14px&quot;&gt;交易网关服务&lt;br&gt;API网关&lt;/font&gt;&lt;/b&gt;" style="rounded=1;whiteSpace=wrap;html=1;sketch=0;strokeColor=#b85450;fillColor=#f8cecc;" parent="1" vertex="1">
          <mxGeometry x="9" y="215" width="211" height="60" as="geometry" />
        </mxCell>
        <mxCell id="OGBte0PvkTn54QuSE-R2-11" value="&lt;b&gt;&lt;font style=&quot;font-size: 14px&quot;&gt;REITs后端服务&lt;/font&gt;&lt;/b&gt;" style="rounded=1;whiteSpace=wrap;html=1;sketch=0;strokeColor=#9673a6;fillColor=#e1d5e7;" parent="1" vertex="1">
          <mxGeometry x="9" y="330" width="200" height="70" as="geometry" />
        </mxCell>
        <mxCell id="OGBte0PvkTn54QuSE-R2-12" value="" style="endArrow=classic;html=1;strokeColor=#457B9D;fillColor=#A8DADC;fontColor=#1D3557;entryX=0.451;entryY=0;entryDx=0;entryDy=0;entryPerimeter=0;" parent="1" target="OGBte0PvkTn54QuSE-R2-11" edge="1">
          <mxGeometry width="50" height="50" relative="1" as="geometry">
            <mxPoint x="99" y="276" as="sourcePoint" />
            <mxPoint x="286" y="280" as="targetPoint" />
          </mxGeometry>
        </mxCell>
        <mxCell id="OGBte0PvkTn54QuSE-R2-15" value="&lt;font color=&quot;#000000&quot;&gt;&lt;b&gt;&lt;span style=&quot;font-size: 14px&quot;&gt;数据库&lt;/span&gt;&lt;br&gt;&lt;span style=&quot;font-size: 14px&quot;&gt;（&lt;/span&gt;&lt;font style=&quot;font-size: 10px&quot;&gt;redis、mysql等&lt;/font&gt;&lt;span style=&quot;font-size: 14px&quot;&gt;）&lt;/span&gt;&lt;br&gt;&lt;/b&gt;&lt;/font&gt;" style="shape=cylinder;whiteSpace=wrap;html=1;boundedLbl=1;backgroundOutline=1;rounded=0;sketch=0;fillColor=#cdeb8b;strokeColor=#36393d;" parent="1" vertex="1">
          <mxGeometry x="49.5" y="430" width="130" height="80" as="geometry" />
        </mxCell>
        <mxCell id="OGBte0PvkTn54QuSE-R2-16" value="" style="endArrow=classic;html=1;strokeColor=#457B9D;fillColor=#A8DADC;fontColor=#1D3557;entryX=0.329;entryY=0.022;entryDx=0;entryDy=0;entryPerimeter=0;" parent="1" target="OGBte0PvkTn54QuSE-R2-15" edge="1">
          <mxGeometry width="50" height="50" relative="1" as="geometry">
            <mxPoint x="92" y="401" as="sourcePoint" />
            <mxPoint x="286" y="380" as="targetPoint" />
          </mxGeometry>
        </mxCell>
        <mxCell id="OGBte0PvkTn54QuSE-R2-24" value="" style="endArrow=classic;html=1;strokeColor=#457B9D;fillColor=#A8DADC;fontColor=#1D3557;entryX=0.693;entryY=1.007;entryDx=0;entryDy=0;entryPerimeter=0;" parent="1" target="OGBte0PvkTn54QuSE-R2-4" edge="1">
          <mxGeometry width="50" height="50" relative="1" as="geometry">
            <mxPoint x="155" y="330" as="sourcePoint" />
            <mxPoint x="156" y="273" as="targetPoint" />
          </mxGeometry>
        </mxCell>
        <mxCell id="OGBte0PvkTn54QuSE-R2-26" value="" style="endArrow=classic;html=1;strokeColor=#457B9D;fillColor=#A8DADC;fontColor=#1D3557;entryX=0.635;entryY=1.005;entryDx=0;entryDy=0;entryPerimeter=0;exitX=0.663;exitY=0.011;exitDx=0;exitDy=0;exitPerimeter=0;" parent="1" source="OGBte0PvkTn54QuSE-R2-15" target="OGBte0PvkTn54QuSE-R2-11" edge="1">
          <mxGeometry width="50" height="50" relative="1" as="geometry">
            <mxPoint x="136" y="430" as="sourcePoint" />
            <mxPoint x="287.1400000000001" y="379.03" as="targetPoint" />
          </mxGeometry>
        </mxCell>
        <mxCell id="OGBte0PvkTn54QuSE-R2-29" value="响应" style="text;html=1;resizable=0;autosize=1;align=center;verticalAlign=middle;points=[];fillColor=none;strokeColor=none;rounded=0;sketch=0;fontColor=#1D3557;" parent="1" vertex="1">
          <mxGeometry x="156" y="290" width="40" height="20" as="geometry" />
        </mxCell>
        <mxCell id="OGBte0PvkTn54QuSE-R2-31" value="&lt;span style=&quot;font-size: 14px&quot;&gt;&lt;b&gt;存储网关&lt;/b&gt;&lt;/span&gt;" style="ellipse;whiteSpace=wrap;html=1;rounded=0;sketch=0;strokeColor=#457B9D;fillColor=#A8DADC;fontColor=#1D3557;" parent="1" vertex="1">
          <mxGeometry x="351" y="330" width="140" height="70" as="geometry" />
        </mxCell>
        <mxCell id="OGBte0PvkTn54QuSE-R2-33" value="" style="endArrow=classic;html=1;strokeColor=#457B9D;fillColor=#A8DADC;fontColor=#1D3557;exitX=0.999;exitY=0.311;exitDx=0;exitDy=0;exitPerimeter=0;entryX=0.033;entryY=0.315;entryDx=0;entryDy=0;entryPerimeter=0;" parent="1" source="OGBte0PvkTn54QuSE-R2-11" target="OGBte0PvkTn54QuSE-R2-31" edge="1">
          <mxGeometry width="50" height="50" relative="1" as="geometry">
            <mxPoint x="246" y="370" as="sourcePoint" />
            <mxPoint x="356" y="370" as="targetPoint" />
          </mxGeometry>
        </mxCell>
        <mxCell id="OGBte0PvkTn54QuSE-R2-36" value="请求(http/rpc)" style="text;html=1;resizable=0;autosize=1;align=center;verticalAlign=middle;points=[];fillColor=none;strokeColor=none;rounded=0;sketch=0;fontColor=#1D3557;" parent="1" vertex="1">
          <mxGeometry x="49.5" y="290" width="90" height="20" as="geometry" />
        </mxCell>
        <mxCell id="OGBte0PvkTn54QuSE-R2-38" value="&lt;b&gt;&lt;span style=&quot;font-size: 14px&quot;&gt;UUMS服务&lt;/span&gt;&lt;br&gt;&lt;span style=&quot;font-size: 14px&quot;&gt;(&lt;/span&gt;&lt;font style=&quot;font-size: 10px&quot;&gt;处理登录，验证token&lt;/font&gt;&lt;span style=&quot;font-size: 14px&quot;&gt;)&lt;/span&gt;&lt;br&gt;&lt;/b&gt;" style="ellipse;whiteSpace=wrap;html=1;rounded=0;sketch=0;strokeColor=#457B9D;fillColor=#A8DADC;fontColor=#1D3557;" parent="1" vertex="1">
          <mxGeometry x="356" y="205" width="140" height="70" as="geometry" />
        </mxCell>
        <mxCell id="fUmtlEZdL340nA0cj5ke-1" value="&lt;span style=&quot;font-size: 14px&quot;&gt;&lt;b&gt;业管平台&lt;/b&gt;&lt;/span&gt;" style="rounded=1;whiteSpace=wrap;html=1;sketch=0;strokeColor=#9673a6;fillColor=#e1d5e7;" parent="1" vertex="1">
          <mxGeometry x="606" y="330" width="190" height="70" as="geometry" />
        </mxCell>
        <mxCell id="fUmtlEZdL340nA0cj5ke-2" value="&lt;span style=&quot;font-size: 14px&quot;&gt;&lt;b&gt;企业网关&lt;/b&gt;&lt;/span&gt;" style="rounded=1;whiteSpace=wrap;html=1;sketch=0;strokeColor=#b85450;fillColor=#f8cecc;" parent="1" vertex="1">
          <mxGeometry x="606" y="215" width="211" height="60" as="geometry" />
        </mxCell>
        <mxCell id="fUmtlEZdL340nA0cj5ke-12" value="" style="endArrow=classic;html=1;strokeColor=#457B9D;fillColor=#A8DADC;fontColor=#1D3557;entryX=0.05;entryY=0.357;entryDx=0;entryDy=0;entryPerimeter=0;" parent="1" target="OGBte0PvkTn54QuSE-R2-38" edge="1">
          <mxGeometry width="50" height="50" relative="1" as="geometry">
            <mxPoint x="219" y="230" as="sourcePoint" />
            <mxPoint x="352" y="230" as="targetPoint" />
            <Array as="points">
              <mxPoint x="292" y="230" />
            </Array>
          </mxGeometry>
        </mxCell>
        <mxCell id="fUmtlEZdL340nA0cj5ke-13" value="" style="endArrow=none;dashed=1;html=1;strokeWidth=2;jumpStyle=arc;" parent="1" edge="1">
          <mxGeometry width="50" height="50" relative="1" as="geometry">
            <mxPoint x="286" y="176" as="sourcePoint" />
            <mxPoint x="550" y="176" as="targetPoint" />
          </mxGeometry>
        </mxCell>
        <mxCell id="fUmtlEZdL340nA0cj5ke-14" value="" style="endArrow=none;dashed=1;html=1;strokeWidth=2;" parent="1" edge="1">
          <mxGeometry width="50" height="50" relative="1" as="geometry">
            <mxPoint x="284" y="174" as="sourcePoint" />
            <mxPoint x="284" y="440" as="targetPoint" />
          </mxGeometry>
        </mxCell>
        <mxCell id="fUmtlEZdL340nA0cj5ke-15" value="" style="endArrow=none;dashed=1;html=1;strokeWidth=2;" parent="1" edge="1">
          <mxGeometry width="50" height="50" relative="1" as="geometry">
            <mxPoint x="550" y="440" as="sourcePoint" />
            <mxPoint x="550" y="180" as="targetPoint" />
          </mxGeometry>
        </mxCell>
        <mxCell id="fUmtlEZdL340nA0cj5ke-17" value="&lt;b&gt;&lt;font style=&quot;font-size: 14px&quot; color=&quot;#ff9933&quot;&gt;中台服务&lt;/font&gt;&lt;/b&gt;" style="text;html=1;resizable=0;autosize=1;align=center;verticalAlign=middle;points=[];fillColor=none;strokeColor=none;rounded=0;" parent="1" vertex="1">
          <mxGeometry x="383" y="149" width="77" height="22" as="geometry" />
        </mxCell>
        <mxCell id="fUmtlEZdL340nA0cj5ke-22" value="" style="endArrow=classic;html=1;strokeColor=#457B9D;fillColor=#A8DADC;fontColor=#1D3557;entryX=0.321;entryY=1.032;entryDx=0;entryDy=0;entryPerimeter=0;exitX=0.462;exitY=-0.04;exitDx=0;exitDy=0;exitPerimeter=0;" parent="1" source="OGBte0PvkTn54QuSE-R2-4" target="OGBte0PvkTn54QuSE-R2-2" edge="1">
          <mxGeometry width="50" height="50" relative="1" as="geometry">
            <mxPoint x="167" y="209" as="sourcePoint" />
            <mxPoint x="176" y="140" as="targetPoint" />
            <Array as="points" />
          </mxGeometry>
        </mxCell>
        <mxCell id="fUmtlEZdL340nA0cj5ke-23" value="" style="endArrow=classic;html=1;strokeColor=#457B9D;fillColor=#A8DADC;fontColor=#1D3557;entryX=0.25;entryY=0;entryDx=0;entryDy=0;exitX=0.231;exitY=1;exitDx=0;exitDy=0;exitPerimeter=0;" parent="1" source="OGBte0PvkTn54QuSE-R2-2" target="OGBte0PvkTn54QuSE-R2-4" edge="1">
          <mxGeometry width="50" height="50" relative="1" as="geometry">
            <mxPoint x="335" y="112" as="sourcePoint" />
            <mxPoint x="96" y="150" as="targetPoint" />
            <Array as="points" />
          </mxGeometry>
        </mxCell>
        <mxCell id="fUmtlEZdL340nA0cj5ke-28" value="" style="endArrow=classic;html=1;strokeColor=#457B9D;fillColor=#A8DADC;fontColor=#1D3557;entryX=0.75;entryY=1;entryDx=0;entryDy=0;" parent="1" source="fUmtlEZdL340nA0cj5ke-2" target="OGBte0PvkTn54QuSE-R2-2" edge="1">
          <mxGeometry width="50" height="50" relative="1" as="geometry">
            <mxPoint x="693" y="209" as="sourcePoint" />
            <mxPoint x="836" y="139" as="targetPoint" />
            <Array as="points" />
          </mxGeometry>
        </mxCell>
        <mxCell id="fUmtlEZdL340nA0cj5ke-29" value="" style="endArrow=none;dashed=1;html=1;strokeWidth=2;" parent="1" edge="1">
          <mxGeometry width="50" height="50" relative="1" as="geometry">
            <mxPoint x="286" y="440" as="sourcePoint" />
            <mxPoint x="546" y="440" as="targetPoint" />
          </mxGeometry>
        </mxCell>
        <mxCell id="fUmtlEZdL340nA0cj5ke-32" value="" style="endArrow=classic;html=1;strokeColor=#457B9D;fillColor=#A8DADC;fontColor=#1D3557;entryX=1.003;entryY=0.637;entryDx=0;entryDy=0;entryPerimeter=0;" parent="1" target="OGBte0PvkTn54QuSE-R2-4" edge="1">
          <mxGeometry width="50" height="50" relative="1" as="geometry">
            <mxPoint x="360" y="253" as="sourcePoint" />
            <mxPoint x="245.99599999999992" y="253.00000000000009" as="targetPoint" />
            <Array as="points">
              <mxPoint x="292.84" y="253.08" />
            </Array>
          </mxGeometry>
        </mxCell>
        <mxCell id="fUmtlEZdL340nA0cj5ke-37" value="请求(http/rpc)" style="text;html=1;resizable=0;autosize=1;align=center;verticalAlign=middle;points=[];fillColor=none;strokeColor=none;rounded=0;sketch=0;fontColor=#1D3557;" parent="1" vertex="1">
          <mxGeometry x="130" y="129" width="90" height="20" as="geometry" />
        </mxCell>
        <mxCell id="fUmtlEZdL340nA0cj5ke-38" value="响应" style="text;html=1;resizable=0;autosize=1;align=center;verticalAlign=middle;points=[];fillColor=none;strokeColor=none;rounded=0;sketch=0;fontColor=#1D3557;" parent="1" vertex="1">
          <mxGeometry x="187" y="154" width="40" height="20" as="geometry" />
        </mxCell>
        <mxCell id="fUmtlEZdL340nA0cj5ke-39" value="" style="endArrow=classic;html=1;strokeColor=#457B9D;fillColor=#A8DADC;fontColor=#1D3557;exitX=0.852;exitY=0.983;exitDx=0;exitDy=0;exitPerimeter=0;entryX=0.59;entryY=0.027;entryDx=0;entryDy=0;entryPerimeter=0;" parent="1" source="OGBte0PvkTn54QuSE-R2-2" target="fUmtlEZdL340nA0cj5ke-2" edge="1">
          <mxGeometry width="50" height="50" relative="1" as="geometry">
            <mxPoint x="757" y="150" as="sourcePoint" />
            <mxPoint x="847" y="150" as="targetPoint" />
            <Array as="points" />
          </mxGeometry>
        </mxCell>
        <mxCell id="fUmtlEZdL340nA0cj5ke-43" value="请求" style="text;html=1;resizable=0;autosize=1;align=center;verticalAlign=middle;points=[];fillColor=none;strokeColor=none;rounded=0;sketch=0;fontColor=#1D3557;" parent="1" vertex="1">
          <mxGeometry x="617" y="108" width="44" height="22" as="geometry" />
        </mxCell>
        <mxCell id="fUmtlEZdL340nA0cj5ke-44" value="响应" style="text;html=1;resizable=0;autosize=1;align=center;verticalAlign=middle;points=[];fillColor=none;strokeColor=none;rounded=0;sketch=0;fontColor=#1D3557;" parent="1" vertex="1">
          <mxGeometry x="606" y="154" width="40" height="20" as="geometry" />
        </mxCell>
        <mxCell id="fUmtlEZdL340nA0cj5ke-46" value="Token" style="text;html=1;resizable=0;autosize=1;align=center;verticalAlign=middle;points=[];fillColor=none;strokeColor=none;rounded=0;sketch=0;fontColor=#1D3557;" parent="1" vertex="1">
          <mxGeometry x="284" y="214" width="44" height="22" as="geometry" />
        </mxCell>
        <mxCell id="fUmtlEZdL340nA0cj5ke-49" value="" style="endArrow=classic;html=1;strokeColor=#457B9D;fillColor=#A8DADC;fontColor=#1D3557;entryX=-0.005;entryY=0.637;entryDx=0;entryDy=0;entryPerimeter=0;" parent="1" target="fUmtlEZdL340nA0cj5ke-2" edge="1">
          <mxGeometry width="50" height="50" relative="1" as="geometry">
            <mxPoint x="491" y="253.01" as="sourcePoint" />
            <mxPoint x="635.0000000000002" y="253.0000000000001" as="targetPoint" />
            <Array as="points">
              <mxPoint x="564" y="253.01" />
            </Array>
          </mxGeometry>
        </mxCell>
        <mxCell id="fUmtlEZdL340nA0cj5ke-50" value="" style="endArrow=classic;html=1;strokeColor=#457B9D;fillColor=#A8DADC;fontColor=#1D3557;entryX=0.951;entryY=0.287;entryDx=0;entryDy=0;entryPerimeter=0;" parent="1" target="OGBte0PvkTn54QuSE-R2-38" edge="1">
          <mxGeometry width="50" height="50" relative="1" as="geometry">
            <mxPoint x="604.9450000000002" y="224.97000000000003" as="sourcePoint" />
            <mxPoint x="491" y="225" as="targetPoint" />
            <Array as="points">
              <mxPoint x="564" y="224.76" />
            </Array>
          </mxGeometry>
        </mxCell>
        <mxCell id="fUmtlEZdL340nA0cj5ke-51" value="Token" style="text;html=1;resizable=0;autosize=1;align=center;verticalAlign=middle;points=[];fillColor=none;strokeColor=none;rounded=0;sketch=0;fontColor=#1D3557;" parent="1" vertex="1">
          <mxGeometry x="506" y="205" width="44" height="22" as="geometry" />
        </mxCell>
        <mxCell id="fUmtlEZdL340nA0cj5ke-52" value="" style="endArrow=classic;html=1;strokeColor=#457B9D;fillColor=#A8DADC;fontColor=#1D3557;exitX=0.999;exitY=0.311;exitDx=0;exitDy=0;exitPerimeter=0;entryX=0.033;entryY=0.315;entryDx=0;entryDy=0;entryPerimeter=0;" parent="1" edge="1">
          <mxGeometry width="50" height="50" relative="1" as="geometry">
            <mxPoint x="351.0000000000001" y="374.28000000000003" as="sourcePoint" />
            <mxPoint x="204.18000000000006" y="374.00000000000006" as="targetPoint" />
          </mxGeometry>
        </mxCell>
        <mxCell id="fUmtlEZdL340nA0cj5ke-53" value="" style="endArrow=classic;html=1;strokeColor=#457B9D;fillColor=#A8DADC;fontColor=#1D3557;entryX=0.033;entryY=0.315;entryDx=0;entryDy=0;entryPerimeter=0;exitX=0.984;exitY=0.633;exitDx=0;exitDy=0;exitPerimeter=0;" parent="1" source="OGBte0PvkTn54QuSE-R2-31" edge="1">
          <mxGeometry width="50" height="50" relative="1" as="geometry">
            <mxPoint x="484" y="374" as="sourcePoint" />
            <mxPoint x="606.8199999999999" y="374.28" as="targetPoint" />
          </mxGeometry>
        </mxCell>
        <mxCell id="fUmtlEZdL340nA0cj5ke-54" value="" style="endArrow=classic;html=1;strokeColor=#457B9D;fillColor=#A8DADC;fontColor=#1D3557;entryX=0.033;entryY=0.315;entryDx=0;entryDy=0;entryPerimeter=0;" parent="1" edge="1">
          <mxGeometry width="50" height="50" relative="1" as="geometry">
            <mxPoint x="605" y="352" as="sourcePoint" />
            <mxPoint x="484" y="352" as="targetPoint" />
          </mxGeometry>
        </mxCell>
        <mxCell id="fUmtlEZdL340nA0cj5ke-56" value="" style="endArrow=classic;html=1;strokeColor=#457B9D;fillColor=#A8DADC;fontColor=#1D3557;entryX=0.451;entryY=0;entryDx=0;entryDy=0;entryPerimeter=0;" parent="1" edge="1">
          <mxGeometry width="50" height="50" relative="1" as="geometry">
            <mxPoint x="726.1999999999999" y="330" as="sourcePoint" />
            <mxPoint x="726" y="276" as="targetPoint" />
          </mxGeometry>
        </mxCell>
        <mxCell id="fUmtlEZdL340nA0cj5ke-57" value="" style="endArrow=classic;html=1;strokeColor=#457B9D;fillColor=#A8DADC;fontColor=#1D3557;entryX=0.451;entryY=0;entryDx=0;entryDy=0;entryPerimeter=0;" parent="1" edge="1">
          <mxGeometry width="50" height="50" relative="1" as="geometry">
            <mxPoint x="682" y="276" as="sourcePoint" />
            <mxPoint x="682.1999999999999" y="330" as="targetPoint" />
          </mxGeometry>
        </mxCell>
        <mxCell id="fUmtlEZdL340nA0cj5ke-58" value="请求" style="text;html=1;resizable=0;autosize=1;align=center;verticalAlign=middle;points=[];fillColor=none;strokeColor=none;rounded=0;sketch=0;fontColor=#1D3557;" parent="1" vertex="1">
          <mxGeometry x="646" y="289" width="44" height="22" as="geometry" />
        </mxCell>
        <mxCell id="fUmtlEZdL340nA0cj5ke-59" value="响应" style="text;html=1;resizable=0;autosize=1;align=center;verticalAlign=middle;points=[];fillColor=none;strokeColor=none;rounded=0;sketch=0;fontColor=#1D3557;" parent="1" vertex="1">
          <mxGeometry x="726" y="288" width="44" height="22" as="geometry" />
        </mxCell>
      </root>
    </mxGraphModel>
  </diagram>
  <diagram id="RFez3lNjL9ar6PfGb7UX" name="登陆顺序图">
    <mxGraphModel dx="1038" dy="564" grid="1" gridSize="10" guides="1" tooltips="1" connect="1" arrows="1" fold="1" page="1" pageScale="1" pageWidth="827" pageHeight="1169" math="0" shadow="0">
      <root>
        <mxCell id="JJKDrCV2eTXsHWgG4l_X-0" />
        <mxCell id="JJKDrCV2eTXsHWgG4l_X-1" parent="JJKDrCV2eTXsHWgG4l_X-0" />
        <mxCell id="2XEkXMm5EQe36F09QX2t-0" value="&lt;font style=&quot;font-size: 14px&quot;&gt;&lt;b&gt;web，app,H5&lt;br&gt;(用户界面)&lt;/b&gt;&lt;/font&gt;" style="rounded=1;whiteSpace=wrap;html=1;fillColor=#d5e8d4;strokeColor=#82b366;gradientColor=#97d077;" vertex="1" parent="JJKDrCV2eTXsHWgG4l_X-1">
          <mxGeometry x="15" y="40" width="130" height="60" as="geometry" />
        </mxCell>
        <mxCell id="e7lo5KHjXOnK4Ev--E7Q-0" value="&lt;font style=&quot;font-size: 14px&quot;&gt;&lt;b&gt;UUMS&lt;br&gt;用户中心&lt;br&gt;&lt;/b&gt;&lt;/font&gt;" style="rounded=1;whiteSpace=wrap;html=1;fillColor=#ffcd28;strokeColor=#d79b00;gradientColor=#ffa500;" vertex="1" parent="JJKDrCV2eTXsHWgG4l_X-1">
          <mxGeometry x="560" y="40" width="120" height="60" as="geometry" />
        </mxCell>
        <mxCell id="e7lo5KHjXOnK4Ev--E7Q-3" value="&lt;font style=&quot;font-size: 14px&quot;&gt;&lt;b&gt;网关&lt;br&gt;(企业网关/交易API网关)&lt;/b&gt;&lt;/font&gt;" style="rounded=1;whiteSpace=wrap;html=1;fillColor=#dae8fc;strokeColor=#6c8ebf;gradientColor=#7ea6e0;" vertex="1" parent="JJKDrCV2eTXsHWgG4l_X-1">
          <mxGeometry x="270" y="40" width="176" height="60" as="geometry" />
        </mxCell>
        <mxCell id="e7lo5KHjXOnK4Ev--E7Q-4" value="" style="endArrow=none;dashed=1;html=1;strokeColor=#006658;fillColor=#21C0A5;fontColor=#5C5C5C;" edge="1" parent="JJKDrCV2eTXsHWgG4l_X-1" source="e7lo5KHjXOnK4Ev--E7Q-16">
          <mxGeometry width="50" height="50" relative="1" as="geometry">
            <mxPoint x="80" y="360" as="sourcePoint" />
            <mxPoint x="79.5" y="100" as="targetPoint" />
          </mxGeometry>
        </mxCell>
        <mxCell id="e7lo5KHjXOnK4Ev--E7Q-5" value="" style="endArrow=none;dashed=1;html=1;strokeColor=#006658;fillColor=#21C0A5;fontColor=#5C5C5C;" edge="1" parent="JJKDrCV2eTXsHWgG4l_X-1">
          <mxGeometry width="50" height="50" relative="1" as="geometry">
            <mxPoint x="358" y="360" as="sourcePoint" />
            <mxPoint x="357.76" y="100" as="targetPoint" />
          </mxGeometry>
        </mxCell>
        <mxCell id="e7lo5KHjXOnK4Ev--E7Q-6" value="" style="endArrow=none;dashed=1;html=1;strokeColor=#006658;fillColor=#21C0A5;fontColor=#5C5C5C;" edge="1" parent="JJKDrCV2eTXsHWgG4l_X-1">
          <mxGeometry width="50" height="50" relative="1" as="geometry">
            <mxPoint x="630.5" y="360" as="sourcePoint" />
            <mxPoint x="630" y="100" as="targetPoint" />
          </mxGeometry>
        </mxCell>
        <mxCell id="e7lo5KHjXOnK4Ev--E7Q-7" value="" style="endArrow=classic;html=1;strokeColor=#006658;fillColor=#21C0A5;fontColor=#5C5C5C;" edge="1" parent="JJKDrCV2eTXsHWgG4l_X-1">
          <mxGeometry width="50" height="50" relative="1" as="geometry">
            <mxPoint x="80" y="139.84" as="sourcePoint" />
            <mxPoint x="340" y="139.84" as="targetPoint" />
          </mxGeometry>
        </mxCell>
        <mxCell id="e7lo5KHjXOnK4Ev--E7Q-8" value="" style="endArrow=classic;html=1;strokeColor=#006658;fillColor=#21C0A5;fontColor=#5C5C5C;" edge="1" parent="JJKDrCV2eTXsHWgG4l_X-1" source="e7lo5KHjXOnK4Ev--E7Q-18">
          <mxGeometry width="50" height="50" relative="1" as="geometry">
            <mxPoint x="370.0000000000001" y="160" as="sourcePoint" />
            <mxPoint x="630" y="160" as="targetPoint" />
          </mxGeometry>
        </mxCell>
        <mxCell id="e7lo5KHjXOnK4Ev--E7Q-10" value="" style="endArrow=classic;html=1;strokeColor=#006658;fillColor=#21C0A5;fontColor=#5C5C5C;entryX=0;entryY=0;entryDx=0;entryDy=0;" edge="1" parent="JJKDrCV2eTXsHWgG4l_X-1" target="e7lo5KHjXOnK4Ev--E7Q-18">
          <mxGeometry width="50" height="50" relative="1" as="geometry">
            <mxPoint x="370" y="140" as="sourcePoint" />
            <mxPoint x="600" y="140" as="targetPoint" />
          </mxGeometry>
        </mxCell>
        <mxCell id="e7lo5KHjXOnK4Ev--E7Q-13" value="用户名,密码，验证码等" style="text;html=1;resizable=0;autosize=1;align=center;verticalAlign=middle;points=[];fillColor=none;strokeColor=none;rounded=0;sketch=0;fontColor=#5C5C5C;" vertex="1" parent="JJKDrCV2eTXsHWgG4l_X-1">
          <mxGeometry x="130" y="120" width="140" height="20" as="geometry" />
        </mxCell>
        <mxCell id="e7lo5KHjXOnK4Ev--E7Q-15" value="用户名,密码，验证码等" style="text;html=1;resizable=0;autosize=1;align=center;verticalAlign=middle;points=[];fillColor=none;strokeColor=none;rounded=0;sketch=0;fontColor=#5C5C5C;" vertex="1" parent="JJKDrCV2eTXsHWgG4l_X-1">
          <mxGeometry x="410" y="120" width="140" height="20" as="geometry" />
        </mxCell>
        <mxCell id="e7lo5KHjXOnK4Ev--E7Q-16" value="&lt;b&gt;登录请求&lt;/b&gt;" style="rhombus;whiteSpace=wrap;html=1;rounded=0;sketch=0;strokeColor=#006658;fontColor=#5C5C5C;fillColor=#22C7AB;" vertex="1" parent="JJKDrCV2eTXsHWgG4l_X-1">
          <mxGeometry x="40" y="120" width="80" height="80" as="geometry" />
        </mxCell>
        <mxCell id="e7lo5KHjXOnK4Ev--E7Q-17" value="" style="endArrow=none;dashed=1;html=1;strokeColor=#006658;fillColor=#21C0A5;fontColor=#5C5C5C;" edge="1" parent="JJKDrCV2eTXsHWgG4l_X-1" target="e7lo5KHjXOnK4Ev--E7Q-16">
          <mxGeometry width="50" height="50" relative="1" as="geometry">
            <mxPoint x="80" y="360" as="sourcePoint" />
            <mxPoint x="79.49999999999989" y="100" as="targetPoint" />
          </mxGeometry>
        </mxCell>
        <mxCell id="e7lo5KHjXOnK4Ev--E7Q-18" value="&lt;b&gt;获取用户&lt;br&gt;token&lt;/b&gt;" style="rhombus;whiteSpace=wrap;html=1;rounded=0;sketch=0;strokeColor=#006658;fillColor=#21C0A5;fontColor=#5C5C5C;" vertex="1" parent="JJKDrCV2eTXsHWgG4l_X-1">
          <mxGeometry x="590" y="120" width="80" height="80" as="geometry" />
        </mxCell>
        <mxCell id="e7lo5KHjXOnK4Ev--E7Q-23" value="" style="endArrow=classic;html=1;strokeColor=#006658;fillColor=#21C0A5;fontColor=#5C5C5C;" edge="1" parent="JJKDrCV2eTXsHWgG4l_X-1">
          <mxGeometry width="50" height="50" relative="1" as="geometry">
            <mxPoint x="340" y="180" as="sourcePoint" />
            <mxPoint x="100" y="180" as="targetPoint" />
          </mxGeometry>
        </mxCell>
        <mxCell id="e7lo5KHjXOnK4Ev--E7Q-24" value="" style="endArrow=classic;html=1;strokeColor=#006658;fillColor=#21C0A5;fontColor=#5C5C5C;" edge="1" parent="JJKDrCV2eTXsHWgG4l_X-1">
          <mxGeometry width="50" height="50" relative="1" as="geometry">
            <mxPoint x="610" y="180" as="sourcePoint" />
            <mxPoint x="370" y="180" as="targetPoint" />
          </mxGeometry>
        </mxCell>
        <mxCell id="e7lo5KHjXOnK4Ev--E7Q-25" value="返回token" style="text;html=1;resizable=0;autosize=1;align=center;verticalAlign=middle;points=[];fillColor=none;strokeColor=none;rounded=0;sketch=0;fontColor=#5C5C5C;" vertex="1" parent="JJKDrCV2eTXsHWgG4l_X-1">
          <mxGeometry x="455" y="160" width="70" height="20" as="geometry" />
        </mxCell>
        <mxCell id="e7lo5KHjXOnK4Ev--E7Q-26" value="返回token" style="text;html=1;resizable=0;autosize=1;align=center;verticalAlign=middle;points=[];fillColor=none;strokeColor=none;rounded=0;sketch=0;fontColor=#5C5C5C;" vertex="1" parent="JJKDrCV2eTXsHWgG4l_X-1">
          <mxGeometry x="165" y="160" width="70" height="20" as="geometry" />
        </mxCell>
        <mxCell id="e7lo5KHjXOnK4Ev--E7Q-27" value="&lt;b&gt;其他业务&lt;br&gt;请求&lt;/b&gt;" style="rounded=0;whiteSpace=wrap;html=1;fillColor=#ffcc99;strokeColor=#36393d;" vertex="1" parent="JJKDrCV2eTXsHWgG4l_X-1">
          <mxGeometry x="40" y="240" width="80" height="90" as="geometry" />
        </mxCell>
        <mxCell id="e7lo5KHjXOnK4Ev--E7Q-34" value="" style="endArrow=classic;html=1;strokeColor=#006658;fillColor=#21C0A5;fontColor=#5C5C5C;" edge="1" parent="JJKDrCV2eTXsHWgG4l_X-1">
          <mxGeometry width="50" height="50" relative="1" as="geometry">
            <mxPoint x="120" y="280" as="sourcePoint" />
            <mxPoint x="360" y="280" as="targetPoint" />
          </mxGeometry>
        </mxCell>
        <mxCell id="e7lo5KHjXOnK4Ev--E7Q-36" value="请求参数" style="text;html=1;resizable=0;autosize=1;align=center;verticalAlign=middle;points=[];fillColor=none;strokeColor=none;rounded=0;sketch=0;fontColor=#5C5C5C;" vertex="1" parent="JJKDrCV2eTXsHWgG4l_X-1">
          <mxGeometry x="195" y="260" width="60" height="20" as="geometry" />
        </mxCell>
      </root>
    </mxGraphModel>
  </diagram>
  <diagram id="Ykd793zyvduYX_jnsMHu" name="申报基金顺序图">
    <mxGraphModel dx="1038" dy="564" grid="1" gridSize="10" guides="1" tooltips="1" connect="1" arrows="1" fold="1" page="1" pageScale="1" pageWidth="827" pageHeight="1169" math="0" shadow="0">
      <root>
        <mxCell id="uoE901anN9h6SREGYmKl-0" />
        <mxCell id="uoE901anN9h6SREGYmKl-1" parent="uoE901anN9h6SREGYmKl-0" />
      </root>
    </mxGraphModel>
  </diagram>
  <diagram id="vFI2MwlFAUL5GCR1YHoM" name="盘前初始化顺序图">
    <mxGraphModel dx="1038" dy="564" grid="1" gridSize="10" guides="1" tooltips="1" connect="1" arrows="1" fold="1" page="1" pageScale="1" pageWidth="827" pageHeight="1169" math="0" shadow="0">
      <root>
        <mxCell id="TDp3-CpvmxzPVj4K8CWJ-0" />
        <mxCell id="TDp3-CpvmxzPVj4K8CWJ-1" parent="TDp3-CpvmxzPVj4K8CWJ-0" />
      </root>
    </mxGraphModel>
  </diagram>
  <diagram id="FY9xbVxMkNVW0x6ldh-i" name="交易顺序图">
    <mxGraphModel dx="1038" dy="564" grid="1" gridSize="10" guides="1" tooltips="1" connect="1" arrows="1" fold="1" page="1" pageScale="1" pageWidth="827" pageHeight="1169" math="0" shadow="0">
      <root>
        <mxCell id="D05Wb8F2t81YfudN2o28-0" />
        <mxCell id="D05Wb8F2t81YfudN2o28-1" parent="D05Wb8F2t81YfudN2o28-0" />
      </root>
    </mxGraphModel>
  </diagram>
</mxfile>
